<svg xmlns="http://www.w3.org/2000/svg" viewBox="0 0 148.01 233.9"><defs><style>.cls-1{opacity:0.7;}.cls-2{fill:#69a1ac;}.cls-3{fill:#89c5cc;}</style></defs><g id="Layer_2" data-name="Layer 2"><g id="Layer_1-2" data-name="Layer 1"><g id="Plant_Right" data-name="Plant Right" class="cls-1"><path id="Leaf_Me_Alone_" data-name="Leaf Me Alone " class="cls-2" d="M13.59,67.32c8-.42,17.85,4.24,18.7,12.91.62,6.3.43,12.58,1.39,18.87a51.18,51.18,0,0,0,4.6,14.43c2.12,4.4,6.53,8.15,7.67,12.86a20.11,20.11,0,0,1-.68,10.14c-1.22,3.57-.57,3.29,1.87,6.28,4.78,5.86,9.08,11.87,12.13,18.87,4.39,10.08,7.27,21.87,5.64,32.91-.2,1.4-.45,6.43-2.38,6.78-2.15.4-1.15-2.48-1-3.41.73-5.93,1.38-11.11.49-17.14-3.42-23.23-20.1-38.54-31-58.25-.6-1-1.86-3.44-2.74-5-1.38-2.52-2.77-7.32-4.65-9.19-3.52-3.52-.28,3.56.41,4.91.87,1.71,1.83,3.53,2.72,5,4.07,6.94,8.62,14.53,12.83,21.69-18.19,4.15-31-17.71-35.9-32.09C-.32,96-5.15,68.34,13.59,67.32"/><path id="Leaf_Me_Alone_2" data-name="Leaf Me Alone 2" class="cls-3" d="M120.45,45.34C107.12,46.4,98.56,55.19,94.58,67.5,92.43,74.12,92.19,80.93,91,87.75c-1.79,10.25-5.65,18-13.2,25.32a25.35,25.35,0,0,0-5.28,7.06,30.22,30.22,0,0,0-6.1,8.72c-2,4.39-2.55,9.64-.26,14a14.41,14.41,0,0,0,3.75,4.61A90.14,90.14,0,0,0,61,188c.22,8.39.63,16.78,1.11,25.17.13,2.25.86,6,2,2.19,1-3.45-.25-8.87-.37-12.48-.57-17.57-1-33.54,6.18-50q1.14-2.58,2.4-5.12l.14-.1.09.08.21-.34a3.88,3.88,0,0,0,.65-.91,6.57,6.57,0,0,0,1.37-2.5v0A238.37,238.37,0,0,1,89.6,123s5.68-7.74,4.8-3.43c-.43,2.07-4.63,6-6.33,8.22a202.28,202.28,0,0,0-11.84,17.09,8.33,8.33,0,0,0-1.7,2.71c-.28.53-.54,1.06-.79,1.52,13,4.29,23.11-4.36,30-14.42a.05.05,0,0,0,0,0A43.33,43.33,0,0,1,110.7,127c4.48-3.67,9.27-4.32,14.55-6.12,14.41-4.92,20.53-23.59,22.48-37.44,2.19-15.63-8.54-39.59-27.28-38"/><path id="Leaf_Me_Alone_3" data-name="Leaf Me Alone 3" class="cls-3" d="M94.12,1.58c-13.68,14.24-20.29,34-25.52,52.55-5.85,20.74-9.71,41.79-9.86,63.35-.09,14.16-.48,28.41.35,42.56.28,5,.81,10.05,1.59,15,.06.4,1.85,11.5,3.55,8.92,1-1.47-1.83-11.52-2-13.19a217.24,217.24,0,0,1-1.4-28.4c.09-15.62-.37-31.16,1.22-46.72a51.83,51.83,0,0,1,1-7c.59-2.42-.16-1.36,1.75-2.32s4.15-.8,6.07-2C78.43,79.72,82.34,67.83,85.38,60,88.86,51.11,91,41.6,92.66,32.21a195.74,195.74,0,0,0,2.62-20.75,55.09,55.09,0,0,1,.6-6.67,13.38,13.38,0,0,0,.68-2.13c0-1.1-.7-1.74-.76-2.66-.57.52-1.13,1-1.68,1.58"/><path id="Base" class="cls-3" d="M19.53,191.27A42.63,42.63,0,0,0,62.16,233.9h0a42.63,42.63,0,0,0,42.63-42.63h0"/><path id="Leaf_Me_Alone_4" data-name="Leaf Me Alone 4" class="cls-2" d="M107.65,206.85a6.5,6.5,0,0,1-4.46-1.56,9,9,0,0,1-2.4-3.85c-1.1-3.15-1.2-7-1.27-9.57a38.22,38.22,0,0,0-1.37-10.32A18.52,18.52,0,0,0,96.07,177a18.33,18.33,0,0,0-3.52-4c-.72-.62-1.49-1.21-2.23-1.78s-1.35-1-2-1.58l-.31-.26c-2.09-1.75-4.24-3.55-4.5-6.41a4.42,4.42,0,0,1,.76-3.46,3.29,3.29,0,0,1,2.58-.92,11.5,11.5,0,0,1,2.19.27c.11,0,.42.14.85.31a16.84,16.84,0,0,0,4.36,1.23c.33,0,.55-.07.65-.22a.66.66,0,0,0,0-.61c-.25-.6-1.11-1.14-2.57-1.58-2.92-.32-5.68-.61-7.32-.61a5.35,5.35,0,0,0-1.06.08,16,16,0,0,0-7.84,4.36,27.85,27.85,0,0,0-5.41,7.79,59.48,59.48,0,0,0-5,18.19c-.13,1.06-.24,2.2-.34,3.49H63.07a76.74,76.74,0,0,1,.83-8.41,53.8,53.8,0,0,1,5.95-17.34,25.8,25.8,0,0,1,5.8-7.06,16.31,16.31,0,0,1,8.06-3.61c.44,0,.87-.05,1.3,0,.85,0,1.87,0,2.87.09a7.47,7.47,0,0,1,3.18-.94c.45,0,.9-.05,1.36-.05a23.33,23.33,0,0,1,7.67,1.4,33,33,0,0,1,7.33,3.72,38.69,38.69,0,0,1,6.33,5.3,31.93,31.93,0,0,1,4.69,6.16,23.79,23.79,0,0,1,2.92,11.84,38.19,38.19,0,0,1-2,12.17,27.7,27.7,0,0,1-4.1,8c-2.2,2.82-4.71,4.27-7.45,4.3Z"/></g></g></g></svg>