<svg xmlns="http://www.w3.org/2000/svg" viewBox="0 0 120.4 229.15"><defs><style>.cls-1{opacity:0.5;}.cls-2{fill:#69a1ac;}.cls-3{fill:#c1dee2;}.cls-4{fill:#89c5cc;}</style></defs><g id="Layer_2" data-name="Layer 2"><g id="Layer_1-2" data-name="Layer 1"><g id="Plant_Left" data-name="Plant Left" class="cls-1"><path id="Leaf-2" class="cls-2" d="M76.91,48.09c1.81-2.58,5.18-9.15,7.73-10.07,1.65-.6,1.17,5.56,1.19,6.73a99.32,99.32,0,0,1-.91,13.56c-1,8.12-4.2,15.35-8.61,22.26C74,84.13,71.37,87.73,67.69,90,66,91,64,91.14,62.27,92c-2,1-.89.2-1.77,2.23-1.22,2.83-1.61,6.47-2.18,9.49-2.59,13.83-8.88,87-7.79,101.05.1,1.25-1.64,1.55-1.73,0-.46-8.07,3.53-64,5.55-82.27s4-34.45,6.1-40.77c2.47-7.68,7-16.91,10.68-24.07A88.33,88.33,0,0,1,76.91,48.09Z"/><path id="Leaf-3" class="cls-3" d="M90.37,137.78c4.72-3.46,9.83,3.08,5.56,6.54a4.28,4.28,0,0,1-6.22-.36c-.9,1.1-1.75,2.25-2.56,3.22-2.47,3-4.8,6-7,9.09-4.63,6.44-8.61,13.24-12.76,19.92s-8.17,13.22-11.89,20c-3.15,5.72-7.34,12.46-8.42,18.74,1.63-13.32,7.84-26.12,15.23-37.85S78,152.7,89.36,143.51A4,4,0,0,1,90.37,137.78Z"/><path id="Leaf-4" class="cls-2" d="M.83,105.31c2.64.52,7,6.49,9.13,8.77a85,85,0,0,1,7.14,8.6,145.6,145.6,0,0,1,12.65,20.63,191.72,191.72,0,0,1,14.07,36.61,152.47,152.47,0,0,1,4.27,24c.15,1.52,1.74,13.24-.56,13.56-2.06.28-1.42-8.9-1.52-10.15a162.21,162.21,0,0,0-9.2-41.1c-1-2.89-2-6.44-3.61-9-1.17-1.88,0-1.23-2.07-1.94-1.78-.61-3.81-.46-5.63-1.2-3.95-1.62-7.11-4.77-9.89-7.94-5.39-6.15-9.67-12.8-11.89-20.69a99,99,0,0,1-3-13.27C.55,111-.88,105,.83,105.31Z"/><path id="Leaf-5" class="cls-4" d="M11.25,5.92a239.71,239.71,0,0,1,23.4,55.39c3.19,11.63,5.43,23.56,7.65,35.41,3.44,18.34,6.7,36.68,7.62,55.35s2.78,40.44-3.37,58.52c3.07-18.36.14-37.9-.37-56.38-.25-8.82-1-17.56-1.91-26.32-.91-8.51-2.4-17-3.79-25.41q-1-6.17-2.11-12.32c-.22-1.22-.31-4.85-1.08-5.69s-4.77-1.18-6-1.8a32,32,0,0,1-7-4.88A55.62,55.62,0,0,1,14,64.93c-6.39-10.66-8.95-23.67-8.82-36C5.21,26.51,9.06.69,7.52.34,7.61.23,7.7.12,7.78,0,9,2,10.11,3.94,11.25,5.92Z"/><path id="Leaf-6" class="cls-4" d="M118.61,68.13c.15-.22,1.15-1.76.65-1.66,1-.2-1.41,1.7,1.14.54-1.21,1.14-.51,2.63-.5,4.17A37,37,0,0,1,119,78.6a51.23,51.23,0,0,1-3.46,11.23,50.32,50.32,0,0,1-16.53,20.29c-3.5,2.42-6.92,3.24-10.9,4.35-2.51.71-2.71,2-4,4.45-2.78,5.08-5.51,10.14-8,15.4-2.93,6.27-5.77,12.55-8.45,18.93-9,21.51-16.37,43.78-20.23,66.84-.09-13.59,3.05-27.58,7-40.53A241.65,241.65,0,0,1,65.14,152c1-2.18,2.45-5,2.86-7.4.29-1.68-.6-3.31-1-5.08a53.29,53.29,0,0,1-.08-21.64c1.53-7.67,5.94-11.23,13.41-12.32,2.73-.39,6.2-.25,8.71-1.41,2.73-1.27,3.85-5.44,5.4-8.11a109.88,109.88,0,0,1,14.81-20.14,47.52,47.52,0,0,1,5.06-4.66C115.44,70.36,117.84,69.25,118.61,68.13Z"/><path id="Base-2" class="cls-3" d="M32.73,207.89a2.16,2.16,0,0,1,1.82-2.45,1.63,1.63,0,0,1,.31,0H61.37a2.16,2.16,0,0,1,2.16,2.16,1.73,1.73,0,0,1,0,.32l-2,13.89a8.62,8.62,0,0,1-8.53,7.37h-9.6a8.63,8.63,0,0,1-8.54-7.37Z"/></g></g></g></svg>