<svg xmlns="http://www.w3.org/2000/svg" viewBox="0 0 80.1 53"><defs><style>.cls-1{fill:#dde3e9;}.cls-2{fill:#c1dee2;}.cls-3{fill:#89c5cc;}</style></defs><g id="Layer_2" data-name="Layer 2"><g id="Layer_1-2" data-name="Layer 1"><g id="Corner_Plants" data-name="Corner Plants"><path id="Fill_16" data-name="Fill 16" class="cls-1" d="M44.26,48a39,39,0,0,1,2.55-5,14.61,14.61,0,0,1,5.8-6.23,25.45,25.45,0,0,1,13.78-2.85,25,25,0,0,1,7.42,1.41c1,.4,2.07.87,3.08,1.36.62.3,1.23.62,1.84,1,.37.2,1,.4,1.26.77a.7.7,0,0,1-.22,1,.62.62,0,0,1-.32.11c-.46,0-1-.44-1.4-.64-.91-.47-1.85-.89-2.79-1.29a21.77,21.77,0,0,0-4.53-1.39A31.33,31.33,0,0,0,61,36a8.65,8.65,0,0,1-.68,7.93A19,19,0,0,1,51.92,52a11,11,0,0,1-7.47.64c-.49-.1-1.15-.33-1.3-.88s.25-1.25.41-1.76S44,48.69,44.26,48Z"/><path id="Leaf" class="cls-2" d="M67.89,14.52a113.65,113.65,0,0,0-13.14-3.15c-2.63-.42-5.29-.65-7.93-1l1,.21c-.81-.06-1.69.16-2.51.15s-1.84-.1-2.75-.2c-1.78-.19-3.55-.4-5.33-.52-2-.14-4-.17-6-.26a44.09,44.09,0,0,0-5.14-.09c-.92.07-1.88.07-2.82.12-.31,0-3.66-.11-3.66-.12a7,7,0,0,1,1.89-.35c.69-.1,1.38-.13,2.07-.17a8.22,8.22,0,0,1-1.71-1.46c-.16-.17-1.3-1.44-1.21-1.66a25,25,0,0,1,2.5,2.26,5.91,5.91,0,0,0,.49.63c.29.25.23.16.56.2a17.6,17.6,0,0,0,1.92-.07,12.14,12.14,0,0,0,2,0,45.93,45.93,0,0,1,5.72.21,12.24,12.24,0,0,1-2-1.62c-.14-.15-1.54-1.41-1.47-1.58a14.36,14.36,0,0,1,2.59,1.83c.35.36.63.81,1,1.14s.95.26,1.51.28c2,.09,4.09.27,6.12.5,0-3.67-3.76-6-6.62-7.44a22.22,22.22,0,0,0-6.62-2A46,46,0,0,0,19.07.09,31,31,0,0,0,8.68,2.48a32.46,32.46,0,0,0-5,2.7,9.54,9.54,0,0,0-2.1,1.75,9.19,9.19,0,0,0-.76,1c-.17.27-.69.75-.72,1a8.21,8.21,0,0,0,1.18,5.93,16.14,16.14,0,0,0,4.45,4.42,18.59,18.59,0,0,0,6.19,2.82,44,44,0,0,0,5.23.79c6.22.66,13.37.23,18.62-3.76A17.61,17.61,0,0,0,40,14.39c.26-.43.52-.86.75-1.31s.38-1.42.61-1.59,1.43,0,1.87.06c3.32.2,6.63.52,9.93.94,3.5.45,7,1.09,10.41,1.86,1.47.33,2.93.66,4.38,1,.34.09,1.32.56,1.73.37a.41.41,0,0,0,.21-.54.36.36,0,0,0-.07-.1c-.29-.37-1.47-.48-1.92-.6"/><path id="Leave_the_Leaf_" data-name="Leave the Leaf " class="cls-3" d="M47.59,34.25a17.84,17.84,0,0,1-2.9,1.36,17.23,17.23,0,0,1-3.15.84,12.69,12.69,0,0,1-3.79.16A4.47,4.47,0,0,1,36,36a3,3,0,0,1-1.19-1.44l-.09.06a.35.35,0,0,1-.43,0c0-.06,0-.15.07-.24s.22-.24.22-.48V33.8c0-.15,0-.3-.05-.45s0-.21,0-.31a8.55,8.55,0,0,1,0-1.6,10.72,10.72,0,0,1,.89-3.28,16.76,16.76,0,0,1,3.2-5.07,18.07,18.07,0,0,1,2-1.79,21.64,21.64,0,0,1,6.07-3.25,11,11,0,0,1,2.72-.61,6.25,6.25,0,0,1,2.74.38,6.13,6.13,0,0,1,2.46,1.61,2,2,0,0,1,.22.29,3,3,0,0,0,.28.34l0,0c.19.19.19.19.38.11l.21-.09,1.4-.52a34.3,34.3,0,0,1,3.72-1.2,10.37,10.37,0,0,1,1.26-.23l.21,0c.48-.07,1.38-.21,1.65,0a.35.35,0,0,1,.17.27.23.23,0,0,1-.13.18,1.56,1.56,0,0,1-.63.14c-.25,0-.5,0-.76,0a10.57,10.57,0,0,0-1.85.34c-.66.17-1.31.4-1.94.61h0c-.54.18-1.11.39-1.8.64l-1,.37h0l-.1,0-.14.05a.1.1,0,0,0,0,.05.07.07,0,0,0,0,.06,12.21,12.21,0,0,0-1.51.71l-.54.29c-.7.36-1.28.66-1.86,1l-.56.33a19.92,19.92,0,0,0-1.64,1.13,9,9,0,0,0-.88.76,1.23,1.23,0,0,1-.16.15c-.24.21-.65.56-.65.72,0,0,.08-.09.23-.17l.4-.22.09-.05.19-.09h0c.4-.25.78-.53,1.13-.79a22.34,22.34,0,0,1,2-1.31l.14-.08c0,.09-.13.39-.26.62l-.12.19a10.23,10.23,0,0,0-.42,1.09,9.65,9.65,0,0,0-.45,2.12,1.73,1.73,0,0,1,.28-.56c.06-.11.12-.2.15-.27.16-.34.29-.67.4-1a8.47,8.47,0,0,0,.27-.93,2.73,2.73,0,0,0,.07-.37,2.21,2.21,0,0,1,.21-.8h.08a.27.27,0,0,0,.12,0l0,0a.52.52,0,0,0,0-.21s0-.05,0-.07a1,1,0,0,1,.23-.18,3.68,3.68,0,0,1,.45-.21l.29-.12L55,21.81h0l.52-.27.08,0,.1-.06c.11-.06.22-.11.33,0a1.3,1.3,0,0,1,.29.67.84.84,0,0,0,0,.14,4.68,4.68,0,0,1,.12,2.23,8.15,8.15,0,0,1-1.84,3.69,32,32,0,0,1-3.29,3.4A23.42,23.42,0,0,1,47.59,34.25ZM47.1,23.69s0,0,0,0,0,0,0,0a6.84,6.84,0,0,0,2,0,7.22,7.22,0,0,1,.8,0,5.14,5.14,0,0,0-1.66-.25A5.08,5.08,0,0,0,47.1,23.69Zm5.33-4.55.36.21h0l.37.23q.48.3,1,.69a6.73,6.73,0,0,0-1.75-1.13Z"/></g></g></g></svg>