<svg xmlns="http://www.w3.org/2000/svg" viewBox="0 0 46.2 69.7"><defs><style>.cls-1{fill:#69a1ac;}.cls-2{fill:#c1dee2;}.cls-3{fill:#89c5cc;}</style></defs><g id="Layer_2" data-name="Layer 2"><g id="Layer_1-2" data-name="Layer 1"><g id="Corner_Plants-4" data-name="Corner Plants-4"><path id="Fill_10-2" data-name="Fill 10-2" class="cls-1" d="M34.45,69.52a12.2,12.2,0,0,1-2.83.16,17.53,17.53,0,0,1-12.95-6.12c-2.69-3.17-3.43-7.11-4-11.09-.05-.4-.08-.79-.11-1.19a1.64,1.64,0,0,0,0-.23.51.51,0,0,1-.2-.64,26.21,26.21,0,0,1-1.18-3.09c-1-3.12-2-6.3-1.37-9.59a45,45,0,0,0,.81,5.43c0,.1,0,.21.07.31v0a12.74,12.74,0,0,0,.5,1.59v0c0,.07,0,.14.08.2l.18.43a.59.59,0,0,1,.06.14c.3.72.42,1.53.69,2.28.06.16.13.33.2.5v0c.19.45.39.9.61,1.34a1.73,1.73,0,0,1,.29.51,2.82,2.82,0,0,1,.23.46l.39.74h0l.39.71.08.15.14.25c.43.77.89,1.53,1.37,2.27.17.27.58.65.65,1a0,0,0,0,1,0,0,16.85,16.85,0,0,0,3.65,3.84c-.17-.18-.54-.81-.64-.94-.29-.38-.61-.73-.94-1.1q-.87-1-1.65-2a38.36,38.36,0,0,1-2.46-4l0,0a9.34,9.34,0,0,1-.88-1.69c1.07.5,2.26.82,3.36,1.26a28.16,28.16,0,0,1,3.2,1.5,35.53,35.53,0,0,1,4.08,2.59A16,16,0,0,1,30.13,59a18.26,18.26,0,0,1,3.23,5.05A15.14,15.14,0,0,1,34.18,67l0,.14a9.75,9.75,0,0,1,.45,1c.21.56.7,1.18-.22,1.38"/><path id="Fill_1-2" data-name="Fill 1-2" class="cls-2" d="M45.84,48.34a6.7,6.7,0,0,1-3.4,1.7,24.08,24.08,0,0,1-14.13-1.37,31.08,31.08,0,0,1-6.88-3.87,15.63,15.63,0,0,1-3.28-3.06,13,13,0,0,1-1.53-2.59,30.48,30.48,0,0,1-1.32-3.44c-.14-.46-1-2.89-.22-3.11a1.16,1.16,0,0,1,0-.18,39,39,0,0,1-5.73-7.84,61.65,61.65,0,0,1-3.89-7.31A87.51,87.51,0,0,1,1.71,7c-.22-.75-.43-1.51-.63-2.26L.57,2.79A12.89,12.89,0,0,1,0,.51C0-.14.53-.17.69.45S1.07,2,1.28,2.71c.27,1,.55,2,.83,3a72.43,72.43,0,0,0,8.74,19.55,49.32,49.32,0,0,0,5.26,6.86,53.59,53.59,0,0,0,5.71,5.25,40.19,40.19,0,0,0,6.11,4.25A37.39,37.39,0,0,0,33.52,44a52.94,52.94,0,0,0,7.41,2.19c1.32.26,2.65.46,4,.7.24,0,.5.07.73.13.78.2.67.79.21,1.3"/><path id="Fill_20-2" data-name="Fill 20-2" class="cls-3" d="M22.24,31A13.37,13.37,0,0,0,27.83,30a24.8,24.8,0,0,0,4.43-2.57,13.85,13.85,0,0,0,4.6-5.13,6.49,6.49,0,0,0,.69-4.47,3.52,3.52,0,0,0-3.78-2.72,6.79,6.79,0,0,0-3.07,1.66,11.69,11.69,0,0,0-2.57,3c-1.12,1.86-1.78,4-2.74,5.92-.45.92-.89,1.86-1.43,2.74a4.41,4.41,0,0,1-1,1.19c-.22.17-1.14.47-.79.86A11.37,11.37,0,0,1,11.5,21.51q-.13-.69-.24-1.38c0-.29,0-1.36-.29-1.55-.57-.41-.33.84-.31,1,.07.46.13.92.2,1.39A11.72,11.72,0,0,0,22.24,31Z"/></g></g></g></svg>