<svg xmlns="http://www.w3.org/2000/svg" viewBox="0 0 28.45 44.84"><defs><style>.cls-1{fill:#89c5cc;}</style></defs><g id="Layer_2" data-name="Layer 2"><g id="Layer_1-2" data-name="Layer 1"><g id="Corner_Plants-2" data-name="Corner Plants-2"><path id="Fill_16-2" data-name="Fill 16-2" class="cls-1" d="M22.67,5.92c.65,0,1.29,0,1.93,0,.49,0,1.24-.07,1.66.23s.4,1,.33,1.43a10.32,10.32,0,0,1-3,6.31,17.57,17.57,0,0,1-9.81,4.59,8,8,0,0,1-7.1-2.06,29.61,29.61,0,0,0-3.07,8.59,20.46,20.46,0,0,0-.3,4.42c0,1,.08,1.91.18,2.86a3.23,3.23,0,0,1,.09,1.44.65.65,0,0,1-.86.32.75.75,0,0,1-.26-.21,3.24,3.24,0,0,1-.24-1.35C2.1,31.88,2,31.24,2,30.6c-.09-1-.15-2.09-.15-3.14a23.1,23.1,0,0,1,1.25-6.94A23.79,23.79,0,0,1,10.13,9.44a13.63,13.63,0,0,1,7.33-3,36.36,36.36,0,0,1,5.21-.53"/><path id="Twisted_Leaf" data-name="Twisted Leaf" class="cls-1" d="M.86.3A2,2,0,0,1,1.4.16,8.82,8.82,0,0,1,3.1,0,31.82,31.82,0,0,1,8.35.47c1.1.19,2.42.83,3.51.48a7.47,7.47,0,0,1,5.61.29,7.86,7.86,0,0,1,3.61,3.89,9.7,9.7,0,0,1,.69,1.74l.15.37c.13.36.25.72.36,1.09,0,.15.17.5,0,.56a10.75,10.75,0,0,1,.6,1.29,18.84,18.84,0,0,1,1.18,4.06,7,7,0,0,1,0,1.52c0,.25,0,.75-.19.94-.36.41-.55-.16-.5-.43a11.83,11.83,0,0,0-1-5.9A12.18,12.18,0,0,0,20.34,7a8.5,8.5,0,0,0-2.35-2,36.13,36.13,0,0,0-3.58-1.78c-.79-.36-1.59-.71-2.41-1a2.36,2.36,0,0,0-.67-.25,6.49,6.49,0,0,0-1.45.43A31.36,31.36,0,0,1,5.75,3.37a5.31,5.31,0,0,1-2.59-.32,3.23,3.23,0,0,1-.41-.22A6.18,6.18,0,0,1,1,1.85,7.55,7.55,0,0,1,.21,1,.42.42,0,0,1,.11.69.19.19,0,0,1,0,.58C-.06.29.5.29.86.3"/><path id="Fill_18" data-name="Fill 18" class="cls-1" d="M12.66,22.76c6.94,0,11.6,5.66,13.81,11.54a32.19,32.19,0,0,1,1.35,7,10.6,10.6,0,0,0,.36,2.55c.11.24.36.33.24.65a.52.52,0,0,1-.42.37c-.44.08-1.06-.4-1.43-.59a16.16,16.16,0,0,1-6.8-7,29.83,29.83,0,0,1-2.69-5.79,20.75,20.75,0,0,1-.72-3.82c-.05-.51-.09-1-.09-1.53a3,3,0,0,1,.4-1.21A10.08,10.08,0,0,0,9.4,24.7a9.34,9.34,0,0,0-5,4.55,8.44,8.44,0,0,0-.61,1.68,6.43,6.43,0,0,1-.28,1.21c-.44.82-1.35.27-1.26-.5a10,10,0,0,1,3-5.8,10.83,10.83,0,0,1,7.37-3.08"/></g></g></g></svg>