<svg xmlns="http://www.w3.org/2000/svg" viewBox="0 0 64.26 47.81"><defs><style>.cls-1{fill:#69a1ac;}.cls-2{fill:#c1dee2;}.cls-3{fill:#89c5cc;}</style></defs><g id="Layer_2" data-name="Layer 2"><g id="Layer_1-2" data-name="Layer 1"><g id="Corner_Plants-3" data-name="Corner Plants-3"><path id="Fill_10" data-name="Fill 10" class="cls-1" d="M26.71.19A12.9,12.9,0,0,1,29.62,0,18.07,18.07,0,0,1,43,6.32c2.77,3.26,3.53,7.32,4.08,11.42,0,.41.08.81.11,1.22a1.66,1.66,0,0,0,0,.24.51.51,0,0,1,.2.66A26.69,26.69,0,0,1,48.58,23c1,3.22,2,6.49,1.41,9.87a48,48,0,0,0-.83-5.59c0-.1,0-.21-.07-.31v0a11.54,11.54,0,0,0-.51-1.64v0l-.08-.21c-.06-.15-.12-.29-.19-.43l-.06-.15c-.31-.74-.43-1.58-.71-2.35-.06-.17-.13-.35-.2-.52v0q-.3-.69-.63-1.38a1.68,1.68,0,0,1-.3-.52,4.16,4.16,0,0,1-.24-.47l-.4-.77h0l-.4-.74-.09-.16-.14-.25q-.67-1.19-1.41-2.34c-.17-.28-.59-.67-.67-1a0,0,0,0,1,0,0,17.42,17.42,0,0,0-3.76-3.95c.18.19.56.84.66,1,.3.4.63.76,1,1.14a23.84,23.84,0,0,1,1.69,2.07,40.05,40.05,0,0,1,2.54,4.15l0,0a10,10,0,0,1,.91,1.75c-1.1-.51-2.32-.85-3.46-1.3a28.14,28.14,0,0,1-3.29-1.54,38.34,38.34,0,0,1-4.21-2.67,17.18,17.18,0,0,1-4-3.61,19,19,0,0,1-3.33-5.2,16.53,16.53,0,0,1-.84-3,.77.77,0,0,0,0-.15,11.3,11.3,0,0,1-.48-1.07C26.27,1,25.77.39,26.71.19"/><path id="Fill_1" data-name="Fill 1" class="cls-2" d="M.08,23.54c-.21.68,0,1.27.78,1.1.24-.05.49-.13.73-.2,1.34-.37,2.66-.79,4-1.14A54.84,54.84,0,0,1,13.43,22a39.84,39.84,0,0,1,6.27-.29,42.26,42.26,0,0,1,7.58,1.19,57.11,57.11,0,0,1,7.66,2.29,50.81,50.81,0,0,1,8,4A74.7,74.7,0,0,1,59.85,43.33L62,45.72c.53.6,1,1.23,1.56,1.83s.95.22.61-.37a13.65,13.65,0,0,0-1.55-1.86l-1.35-1.56c-.53-.61-1.07-1.21-1.61-1.81a92.11,92.11,0,0,0-8.08-7.85,61.89,61.89,0,0,0-6.92-5,40.3,40.3,0,0,0-8.85-4.68.76.76,0,0,0-.11-.14c.61-.56-1.27-2.43-1.62-2.79a29.59,29.59,0,0,0-2.78-2.59,13.2,13.2,0,0,0-2.59-1.71,16.23,16.23,0,0,0-4.41-1.36,32.58,32.58,0,0,0-8.13-.48,24.86,24.86,0,0,0-13.7,5.1A6.85,6.85,0,0,0,.08,23.54Z"/><path id="Fill_20" data-name="Fill 20" class="cls-3" d="M39.23,28.74a13.7,13.7,0,0,0-5.76,1.08,25.53,25.53,0,0,0-4.56,2.64,14.35,14.35,0,0,0-4.74,5.29,6.63,6.63,0,0,0-.71,4.6,3.62,3.62,0,0,0,3.89,2.8,7.17,7.17,0,0,0,3.16-1.7,12,12,0,0,0,2.65-3.12c1.15-1.92,1.84-4.09,2.82-6.1.47-.95.92-1.91,1.48-2.82a4.46,4.46,0,0,1,1-1.22c.22-.18,1.17-.49.81-.89a11.72,11.72,0,0,1,11,9.21c.09.47.16,1,.24,1.42.05.3,0,1.4.3,1.59.59.43.34-.86.32-1L51,39.05a11.86,11.86,0,0,0-3.47-6.83A12.05,12.05,0,0,0,39.23,28.74Z"/></g></g></g></svg>