<svg xmlns="http://www.w3.org/2000/svg" viewBox="0 0 143.66 182.94"><defs><style>.cls-1{fill:#f2f2f2;opacity:0.49;isolation:isolate;}</style></defs><g id="Layer_2" data-name="Layer 2"><g id="Layer_1-2" data-name="Layer 1"><path id="Leaf_Bottom-2" data-name="Leaf Bottom-2" class="cls-1" d="M0,178.64a34.49,34.49,0,0,0,.48,4.3A13,13,0,0,1,0,178.64Zm9.31-33.06a82.24,82.24,0,0,1,17.74-22.22c-1.07-5-13.64-13.41-5.22-17.06,4.46-1.93,8.38,2.47,8.86,6.75.34,2.94-1,6.44-2.32,9.12q3.32-2.91,6.81-5.59c3.22-2.48,6.5-4.86,9.81-7.21-4.49-5.31-7.79-19.48-.87-21,10.23-2.25,3.53,15.89,2.48,19.31a.53.53,0,0,1-.44-.22c0,.32,0,.67.09,1C52.6,104,59,99.66,65.23,95.06a26.51,26.51,0,0,1-1.69-2.86,30.52,30.52,0,0,1-3.25-6.1C59,82.66,58,77.27,62.47,75.8c4.82-1.61,6.4,4.53,6.06,8a47.22,47.22,0,0,1-1.71,7c-.19.73-.13,4.13-1,2.58a6.94,6.94,0,0,1-.1,1.2c1.12-.83,2.23-1.67,3.34-2.52a1.5,1.5,0,0,1,0-.42,1.2,1.2,0,0,1,1.83-1q2.19-1.72,4.34-3.51c3-2.52,6.12-5.13,9.19-7.79-.55-.59-.24-1.29-.74-1.91s-1.57-1-2.17-1.62A16.21,16.21,0,0,1,78,70.46c-1.32-3.25-2.76-9.93,2.18-10.89,5.09-1,6.94,5.49,6.85,9.41a99.18,99.18,0,0,1-2,9.9c5.68-5,11.3-10.13,16.45-15.45-1.38-.16-5-3.46-5.7-4.33-1.73-2.13-4.35-6.69-.74-8.57,3.22-1.67,6.63,1.6,7.62,4.54a40.55,40.55,0,0,1,.32,6.79c2.14-2.27,4.2-4.55,6.13-6.86q1.92-2.3,3.66-4.74a2.51,2.51,0,0,1-.6-.74c-4.93-1.4-10.49-10.06-4.31-12.21,3-1,5.7,2,6.84,4.4a29.59,29.59,0,0,1,.64,4.68,97.16,97.16,0,0,0,8.46-17.33,1.12,1.12,0,0,1-.75-1.13c-2.29-1.67-4.09-3.06-5.51-6-.88-1.8-2.38-5.87.82-6.48,4.17-.79,6,5.77,6.06,8.9,0,.36-.11,1.41-.22,2.36a1.52,1.52,0,0,1,.42.06c1.33-3.76,2.47-7.59,3.47-11.44-2.13-.95-1.29-12.79.36-14.31,3.67-3.41,5.42,2.27,4.94,5.12A19.22,19.22,0,0,1,129,15c-.22.27-.17.27-.17-.14a.92.92,0,0,1-.24.43,52.11,52.11,0,0,1-.35,5.21,124.8,124.8,0,0,1-2.93,13.36c-.29,1.07-.61,2.12-1,3.17a25.53,25.53,0,0,1,5.45-2.8c2.54-.85,6.4-1.65,8.62.49a4.2,4.2,0,0,1,.1,6l-.28.27c-2.18,2-5.72,1.55-8.35,1-1.19-.22-7.54-1.43-5.91-2.33a5.75,5.75,0,0,0-.66.23c-.19.51-.39,1-.6,1.52l.1.08-.1-.07a61.16,61.16,0,0,1-8.13,14,13.06,13.06,0,0,1,3.4-.55c3.39-.08,10.14,3.31,5.93,7.45-4,4-9.13-1.29-13.12-2.36a195.26,195.26,0,0,1-14.54,14.8,1.13,1.13,0,0,1,.61.64c1.92-.76,4-1.9,5.7-2.09,2.5-.27,7.53-.06,9.15,2.37,2,3-.68,4.94-3.42,5.18-4,.35-8.86-2.12-12.46-3.83a1.24,1.24,0,0,1-1.13-.52l-.24-.11C89.31,81.14,84,85.64,78.72,90h.16a12.82,12.82,0,0,1,4.21-1.44c3.43-.48,7.36-.06,9.82,2.69s3,7.13-.13,9.59c-6.17,4.92-13.1-8.53-15.87-9.35-5.35,4.4-11,8.46-16.61,12.41a8.9,8.9,0,0,1,1.86-.19c5.14.05,16.45,7.69,9.54,13.29-6,4.88-11.23-6.3-15.25-10.44-5.33,3.68-10.69,7.32-15.93,11.15a13.81,13.81,0,0,1,7.93.89c2.8,1.2,7.24,3.93,5,7.72s-7.71,1.42-10.49-.18c-1.53-.87-4.47-3.58-7.18-4.88a98,98,0,0,0-21.86,22.94,87,87,0,0,0-9.14,18.09C3.29,166.38.45,173.17.31,178.65c-.87-11.09,4.11-23.76,9-33.07ZM128.67,21.12c.43,0,2.26-4.31,2.8-4.94a14.63,14.63,0,0,1,5.95-3.93c3.59-1.36,7.94,1.12,5.56,5.49-1.89,3.48-6.56,4-10.57,3.75C131,21.42,129.74,21.26,128.67,21.12Z"/></g></g></svg>