<svg xmlns="http://www.w3.org/2000/svg" viewBox="0 0 169.28 197.3"><defs><style>.cls-1{fill:#c1dee2;opacity:0.3;isolation:isolate;}</style></defs><g id="Layer_2" data-name="Layer 2"><g id="Layer_1-2" data-name="Layer 1"><path id="Leaf_Top" data-name="Leaf Top" class="cls-1" d="M169.27,193a22,22,0,0,1-.91,4.34A8.59,8.59,0,0,0,169.27,193Zm-11-35.38c-5.34-9.27-12.66-17.15-21-24.06,1.31-5.45,16.3-14.64,6.31-18.57-5.31-2.07-10,2.74-10.59,7.39-.41,3.2,1.17,7,2.72,9.91q-3.93-3.15-8.08-6c-3.82-2.67-7.71-5.25-11.63-7.78,5.38-5.8,9.38-21.22,1.15-22.84-12.16-2.38-4.28,17.3-3.05,21a.65.65,0,0,0,.52-.25c0,.36-.06.74-.11,1.12-7.51-4.82-15.1-9.52-22.49-14.49a29.12,29.12,0,0,0,2-3.11A32.34,32.34,0,0,0,98,93.21c1.52-3.75,2.73-9.61-2.54-11.19-5.73-1.72-7.63,5-7.25,8.79.26,2.65,1.31,5.09,2,7.64.21.8.13,4.5,1.14,2.8a7.05,7.05,0,0,0,.1,1.3q-2-1.33-4-2.72a1.14,1.14,0,0,0,.06-.45,1.43,1.43,0,0,0-2.17-1c-1.74-1.24-3.45-2.5-5.15-3.78C76.6,91.83,73,89,69.31,86.13c.65-.64.28-1.4.88-2.07s1.87-1.14,2.6-1.78a17.77,17.77,0,0,0,4.18-6c1.6-3.54,3.35-10.82-2.52-11.83-6-1.05-8.29,6-8.21,10.26a98.76,98.76,0,0,0,2.28,10.75C61.78,80.13,55.13,74.54,49,68.78c1.64-.18,6-3.78,6.81-4.73,2.07-2.32,5.22-7.29.92-9.32-3.81-1.8-7.89,1.78-9.09,5a40.47,40.47,0,0,0-.41,7.38c-2.54-2.45-5-4.92-7.25-7.42q-2.3-2.49-4.33-5.13a2.63,2.63,0,0,0,.71-.81c5.87-1.55,12.54-11,5.2-13.29-3.5-1.1-6.8,2.23-8.17,4.82a29.27,29.27,0,0,0-.78,5.09,100.72,100.72,0,0,1-10-18.8,1.22,1.22,0,0,0,.9-1.22c2.73-1.83,4.88-3.35,6.58-6.51,1.06-2,2.87-6.39-.94-7C24.25,16,22,23.09,22,26.49c0,.4.12,1.53.25,2.57a2.07,2.07,0,0,0-.5.06c-1.56-4.07-2.91-8.22-4.07-12.4,2.54-1,1.59-13.92-.35-15.57-4.37-3.71-6.48,2.48-5.93,5.58.65,3.65,2.81,6.82,5.27,9.57.26.29.19.29.2-.16a.84.84,0,0,0,.28.47,51.1,51.1,0,0,0,.4,5.66,122.2,122.2,0,0,0,3.4,14.51c.35,1.16.72,2.3,1.13,3.43a31.42,31.42,0,0,0-6.47-3c-3-.92-7.61-1.76-10.26.57a4.33,4.33,0,0,0,.18,6.76c2.58,2.17,6.8,1.66,9.93,1.1,1.41-.25,9-1.59,7-2.57a6.48,6.48,0,0,1,.78.26c.23.55.47,1.09.71,1.64l-.12.09.12-.08A64.24,64.24,0,0,0,33.55,60.2a17.29,17.29,0,0,0-4-.58c-4-.07-12.08,3.66-7.1,8.13C27.18,72,33.27,66.3,38,65.11a217.46,217.46,0,0,0,17.21,16,1.25,1.25,0,0,0-.72.69c-2.3-.8-4.72-2-6.78-2.24-3-.27-9,0-10.9,2.62-2.38,3.25.78,5.38,4,5.63,4.72.35,10.55-2.37,14.85-4.24A1.56,1.56,0,0,0,57.1,83l.28-.12C63.49,88,69.79,92.82,76,97.56h-.18a16.2,16.2,0,0,0-5-1.54c-4.07-.5-8.75,0-11.69,3s-3.56,7.77.1,10.42c7.31,5.32,15.63-9.34,18.93-10.25,6.34,4.76,13,9.14,19.7,13.4a12.6,12.6,0,0,0-2.21-.19c-6.13.08-19.62,8.44-11.43,14.5,7.14,5.27,13.4-6.91,18.2-11.44,6.33,4,12.68,7.91,18.9,12a17.79,17.79,0,0,0-9.44,1c-3.34,1.32-8.64,4.3-6,8.41s9.15,1.5,12.48-.25c1.82-1,5.34-3.92,8.56-5.34,10,7.07,18.8,15.06,25.89,24.82a90.26,90.26,0,0,1,10.77,19.62c1.77,4.41,5.1,11.77,5.24,17.72C170,181.42,164.09,167.67,158.29,157.58ZM17.43,22.43c-.5,0-2.62-4.63-3.24-5.3a16.89,16.89,0,0,0-6.9-4.19C3.11,11.49-2,14.18.78,18.85c2.19,3.74,7.62,4.23,12.29,4C14.67,22.75,16.17,22.58,17.43,22.43Z"/></g></g></svg>