<svg xmlns="http://www.w3.org/2000/svg" viewBox="0 0 140.47 211.83"><defs><style>.cls-1{fill:#c1dee2;opacity:0.3;isolation:isolate;}</style></defs><g id="Layer_2" data-name="Layer 2"><g id="Layer_1-2" data-name="Layer 1"><path id="Leaf_Top-2" data-name="Leaf Top-2" class="cls-1" d="M.19,207.61a23.91,23.91,0,0,0,1.29,4.22A9.13,9.13,0,0,1,.19,207.61ZM6.87,171.3A89.16,89.16,0,0,1,24,145.24c-1.78-5.29-16.72-12.91-7.78-17.83,4.74-2.6,9.6,1.71,10.64,6.28.71,3.13-.38,7.08-1.53,10.12q3.33-3.52,6.93-6.83c3.3-3,6.67-6,10.08-8.92-5.61-5.22-10.92-20.15-3.39-22.59,11.12-3.61,5.76,16.77,5,20.58a.6.6,0,0,1-.52-.19c.06.35.14.72.22,1.1,6.53-5.56,13.15-11,19.55-16.69A29.44,29.44,0,0,1,61,107.38a32.93,32.93,0,0,1-4.32-6.22c-1.79-3.58-3.52-9.28,1.24-11.39,5.18-2.29,7.64,4.16,7.67,8,0,2.66-.71,5.19-1.09,7.8-.12.81.34,4.49-.78,2.9a7.17,7.17,0,0,1,0,1.31q1.73-1.55,3.42-3.11a1.34,1.34,0,0,1,1.21-1.83A1.36,1.36,0,0,1,69,105q2.23-2.12,4.43-4.29c3.08-3.08,6.21-6.24,9.31-9.48-.67-.57-.4-1.36-1-2s-1.87-.94-2.61-1.51a17.59,17.59,0,0,1-4.51-5.52c-1.84-3.35-4.22-10.41,1.16-12,5.54-1.66,8.36,5.13,8.71,9.37a105,105,0,0,1-1,10.92c5.75-6,11.41-12.25,16.53-18.59-1.55,0-6-3.16-6.84-4-2.17-2.1-5.62-6.73-1.81-9.18,3.38-2.17,7.55,1,9,4a42,42,0,0,1,1.13,7.3c2.12-2.69,4.15-5.4,6-8.11,1.25-1.81,2.43-3.65,3.52-5.55a2.42,2.42,0,0,1-.74-.72C104.6,54.7,97.41,46,104,43c3.16-1.45,6.58,1.53,8.13,4a32.66,32.66,0,0,1,1.24,5,104,104,0,0,0,7.41-19.71,1.2,1.2,0,0,1-1-1.12c-2.74-1.55-4.9-2.84-6.81-5.81-1.19-1.85-3.32-6.07.16-7.09,4.54-1.34,7.39,5.53,7.76,8.92,0,.39,0,1.53,0,2.58a1.55,1.55,0,0,1,.48,0c1-4.21,1.88-8.48,2.54-12.75-2.47-.79-2.9-13.69-1.25-15.53,3.7-4.11,6.3,1.83,6.1,5a20.66,20.66,0,0,1-4,10.06c-.22.31-.15.3-.21-.14a.9.9,0,0,1-.21.49,56.54,56.54,0,0,1,.2,5.67A130.86,130.86,0,0,1,123,37.23c-.2,1.19-.44,2.36-.7,3.53A28.84,28.84,0,0,1,128,37.11c2.73-1.21,6.94-2.52,9.65-.47a4.49,4.49,0,0,1,.91,6.28,4.4,4.4,0,0,1-.4.46C136,45.81,132,45.72,129,45.49c-1.35-.11-8.55-.68-6.85-1.85a6.44,6.44,0,0,0-.7.34c-.15.57-.32,1.14-.49,1.7l.12.08-.12-.07a65.54,65.54,0,0,1-7.44,16.12,15.11,15.11,0,0,1,3.73-1c3.76-.48,11.66,2.41,7.45,7.37-4,4.75-10.3-.34-14.87-1A213.17,213.17,0,0,1,95.39,84.84a1.28,1.28,0,0,1,.75.62c2-1,4.2-2.51,6.1-2.92,2.75-.57,8.38-.93,10.45,1.51,2.55,3-.19,5.42-3.2,6-4.38.83-10.1-1.28-14.31-2.71a1.39,1.39,0,0,1-1.32-.43l-.27-.1c-5.19,5.64-10.59,11.11-16,16.46h.17a14.55,14.55,0,0,1,4.52-2.05c3.76-.9,8.18-.91,11.23,1.77s4.11,7.37,1,10.38c-6.3,6-15.56-7.7-18.73-8.27-5.44,5.37-11.2,10.4-17,15.32a11,11,0,0,1,2-.41c5.73-.55,19.18,6.41,12.14,13.26-6.13,6-13.22-5.52-18.16-9.53-5.51,4.59-11.05,9.15-16.44,13.88a15.83,15.83,0,0,1,8.92,0c3.26,1,8.51,3.41,6.45,7.77s-8.4,2.41-11.69,1c-1.79-.76-5.38-3.35-8.54-4.44A107.33,107.33,0,0,0,11.8,169.31a92.9,92.9,0,0,0-8.07,20.61C2.53,194.48.17,202.14.64,208.08-1.61,196.2,2.47,181.93,6.87,171.3ZM124.78,22.59c.47,0,2-4.87,2.5-5.6a15.77,15.77,0,0,1,6-4.87c3.76-1.87,8.77.3,6.68,5.22-1.67,3.94-6.7,5-11.08,5.21C127.4,22.63,126,22.61,124.78,22.59Z"/></g></g></svg>