<svg xmlns="http://www.w3.org/2000/svg" viewBox="0 0 153.05 231.6"><defs><style>.cls-1{fill:#f2f2f2;opacity:0.5;isolation:isolate;}</style></defs><g id="Layer_2" data-name="Layer 2"><g id="Layer_1-2" data-name="Layer 1"><path id="Leaf_Bottom" data-name="Leaf Bottom" class="cls-1" d="M152.7,226.59a39,39,0,0,1-1.12,5A14.89,14.89,0,0,0,152.7,226.59Zm-7.07-40.07A97.17,97.17,0,0,0,127,158.14c1.93-5.76,18.14-14.08,8.45-19.43-5.14-2.83-10.41,1.87-11.54,6.85-.77,3.42.4,7.71,1.65,11q-3.61-3.84-7.51-7.43c-3.57-3.32-7.23-6.53-10.92-9.71,6.09-5.69,11.85-22,3.69-24.62-12-3.91-6.25,18.27-5.41,22.43a.63.63,0,0,0,.56-.21c-.07.38-.15.79-.24,1.2-7.07-6.05-14.25-12-21.18-18.17a31.9,31.9,0,0,0,2.4-3.15,35.12,35.12,0,0,0,4.68-6.78c2-3.89,3.83-10.11-1.33-12.4-5.61-2.49-8.28,4.53-8.32,8.73,0,2.89.77,5.65,1.18,8.5.13.88-.37,4.88.84,3.16a8.42,8.42,0,0,0,0,1.42c-1.25-1.12-2.48-2.25-3.71-3.39a1.53,1.53,0,0,0,.11-.48,1.46,1.46,0,0,0-1.4-1.51,1.39,1.39,0,0,0-.69.15c-1.62-1.54-3.22-3.09-4.8-4.67-3.34-3.35-6.72-6.8-10.09-10.32.73-.63.44-1.49,1.12-2.15s2-1,2.83-1.65a19.38,19.38,0,0,0,4.9-6c2-3.66,4.58-11.35-1.25-13.09C65,74.64,62,82,61.56,86.66a115.49,115.49,0,0,0,1.12,11.89C56.45,92,50.33,85.22,44.78,78.31c1.69,0,6.46-3.45,7.42-4.38,2.36-2.28,6.1-7.33,2-10C50.51,61.56,46,65,44.41,68.33a47.47,47.47,0,0,0-1.24,8c-2.29-2.93-4.49-5.88-6.52-8.83-1.36-2-2.63-4-3.82-6.05a2.65,2.65,0,0,0,.81-.79c6.12-1,13.92-10.54,6.74-13.84C37,45.2,33.25,48.44,31.57,51.1a35.07,35.07,0,0,0-1.36,5.43,113.75,113.75,0,0,1-8-21.46,1.32,1.32,0,0,0,1-1.23c3-1.69,5.32-3.09,7.39-6.33,1.29-2,3.61-6.61-.17-7.73-4.93-1.45-8,6-8.43,9.72-.05.44,0,1.68,0,2.82a1.46,1.46,0,0,0-.51,0c-1.13-4.59-2-9.24-2.75-13.89,2.69-.86,3.16-14.91,1.36-16.91-4-4.48-6.82,2-6.61,5.41a22.53,22.53,0,0,0,4.27,11c.24.35.17.33.23-.15a1,1,0,0,0,.23.54A60.48,60.48,0,0,0,18,24.45a140.41,140.41,0,0,0,1.84,16.1c.22,1.29.47,2.57.76,3.84a31.8,31.8,0,0,0-6.21-4c-3-1.32-7.52-2.74-10.46-.5a4.91,4.91,0,0,0-1,6.87,4.45,4.45,0,0,0,.41.47c2.37,2.64,6.7,2.55,9.93,2.29,1.46-.12,9.27-.74,7.42-2a7.43,7.43,0,0,1,.76.35c.17.63.35,1.25.54,1.87l-.14.08.14-.07a71.26,71.26,0,0,0,8,17.54,17,17,0,0,0-4-1.07c-4.07-.51-12.64,2.64-8.08,8,4.36,5.18,11.17-.38,16.13-1.14A233,233,0,0,0,49.73,92.39a1.29,1.29,0,0,0-.81.67c-2.23-1.12-4.55-2.73-6.62-3.17-3-.63-9.08-1-11.33,1.65-2.77,3.26.21,5.91,3.47,6.53,4.74.91,11-1.4,15.51-3a1.51,1.51,0,0,0,1.43-.47l.3-.1c5.63,6.16,11.47,12.11,17.27,17.93h-.18a16,16,0,0,0-4.9-2.23c-4.08-1-8.87-1-12.18,2s-4.46,8-1,11.31c6.82,6.56,16.87-8.41,20.31-9,5.9,5.85,12.14,11.32,18.47,16.68a11.21,11.21,0,0,0-2.22-.45c-6.21-.59-20.8,7-13.18,14.45,6.64,6.5,14.34-6,19.7-10.39,6,5,12,9.95,17.81,15.11a17.11,17.11,0,0,0-9.67.06c-3.53,1.07-9.23,3.72-7,8.46s9.11,2.63,12.67,1.1c1.94-.85,5.84-3.67,9.26-4.86a116.58,116.58,0,0,1,23.48,29.73A101.13,101.13,0,0,1,149,206.79c1.3,5,3.86,13.31,3.34,19.78C154.8,213.63,150.38,198.09,145.63,186.52ZM17.38,25.13c-.52,0-2.18-5.36-2.76-6.17A17.54,17.54,0,0,0,8,13.59c-4.17-2.05-9.72.33-7.41,5.77C2.39,23.69,8,24.84,12.83,25.09c1.66.09,3.23.07,4.55,0Z"/></g></g></svg>